<svg width="1200" height="630" viewBox="0 0 1200 630" fill="none" xmlns="http://www.w3.org/2000/svg">
  <defs>
    <linearGradient id="bg" x1="0" y1="0" x2="1" y2="1">
      <stop stop-color="#f7f8fc" offset="0%"/>
      <stop stop-color="#e6edff" offset="50%"/>
      <stop stop-color="#f3f6ff" offset="100%"/>
    </linearGradient>
    <linearGradient id="accent" x1="0" y1="0" x2="1" y2="1">
      <stop stop-color="#5b7cff" offset="0%"/>
      <stop stop-color="#7ad7f0" offset="100%"/>
    </linearGradient>
    <linearGradient id="glow" x1="0" y1="0" x2="0" y2="1">
      <stop stop-color="#dfe8ff" stop-opacity="0.7" offset="0%"/>
      <stop stop-color="#f8fbff" stop-opacity="0.1" offset="100%"/>
    </linearGradient>
  </defs>
  <rect width="1200" height="630" fill="url(#bg)"/>
  <circle cx="980" cy="120" r="140" fill="url(#glow)"/>
  <circle cx="200" cy="520" r="180" fill="url(#glow)"/>
  <path d="M1040 420C990 470 840 530 700 520C620 514 540 470 460 468C335 464 220 514 160 556L160 150C250 112 360 88 470 96C620 108 760 168 890 186C990 200 1070 180 1120 160L1120 360C1100 382 1070 400 1040 420Z" fill="#ffffff" opacity="0.75"/>
  <rect x="140" y="180" width="340" height="220" rx="24" fill="#ffffff" stroke="#e5e9f7" stroke-width="2"/>
  <rect x="180" y="230" width="260" height="14" rx="7" fill="#dfe7ff"/>
  <rect x="180" y="260" width="220" height="14" rx="7" fill="#e9efff"/>
  <rect x="180" y="290" width="200" height="14" rx="7" fill="#edf2ff"/>
  <rect x="180" y="330" width="140" height="14" rx="7" fill="#e9efff"/>
  <rect x="540" y="200" width="520" height="240" rx="28" fill="#0f172a" opacity="0.9"/>
  <rect x="560" y="224" width="12" height="12" rx="6" fill="#7ad7f0"/>
  <rect x="584" y="224" width="12" height="12" rx="6" fill="#5b7cff"/>
  <rect x="608" y="224" width="12" height="12" rx="6" fill="#a5b4fc"/>
  <text x="170" y="145" fill="#0f172a" font-size="42" font-family="Manrope, 'Space Grotesk', 'Segoe UI', sans-serif" font-weight="700">问题模版平台</text>
  <text x="170" y="180" fill="#475569" font-size="20" font-family="Manrope, 'Space Grotesk', 'Segoe UI', sans-serif" font-weight="500">精选 Prompt 模版 · 内置评价规则 · 一键渲染/复制</text>
  <text x="580" y="270" fill="#e2e8f0" font-size="18" font-family="Menlo, 'Roboto Mono', monospace" opacity="0.9">{</text>
  <text x="600" y="300" fill="#cbd5e1" font-size="18" font-family="Menlo, 'Roboto Mono', monospace" opacity="0.9">"template": "秒读决策画布",</text>
  <text x="600" y="330" fill="#cbd5e1" font-size="18" font-family="Menlo, 'Roboto Mono', monospace" opacity="0.9">"rules": ["收敛风险", "生成行动"]</text>
  <text x="580" y="360" fill="#e2e8f0" font-size="18" font-family="Menlo, 'Roboto Mono', monospace" opacity="0.9">}</text>
  <rect x="170" y="380" width="200" height="56" rx="16" fill="url(#accent)" opacity="0.15"/>
  <text x="190" y="418" fill="#334155" font-size="18" font-family="Manrope, 'Space Grotesk', 'Segoe UI', sans-serif" font-weight="600">AI 友好 · 可索引 · 可分享</text>
</svg>
